<svg width="17" height="11" viewBox="0 0 17 11" fill="none" xmlns="http://www.w3.org/2000/svg">
<path d="M16.0054 5.06851C16.0054 4.94514 15.9308 4.78121 15.8551 4.70156L11.587 0.166477C11.3877 -0.0395104 11.0649 -0.0633284 10.8326 0.145636C10.625 0.332646 10.6198 0.697165 10.8118 0.90019L14.2379 4.53486H0.533475C0.238728 4.53486 0 4.77378 0 5.06834C0 5.36308 0.238923 5.60181 0.533475 5.60181H14.2379L10.8118 9.23648C10.6198 9.4395 10.6333 9.79511 10.8326 9.99085C11.0429 10.1976 11.3909 10.1792 11.587 9.97001L15.8551 5.43511C15.9805 5.31211 16.0034 5.19358 16.0054 5.06835V5.06851Z" fill="#3D6ADE"/>
</svg>
