<svg width="33" height="33" viewBox="0 0 33 33" fill="none" xmlns="http://www.w3.org/2000/svg">
<path fill-rule="evenodd" clip-rule="evenodd" d="M33 4.125C33 1.84832 31.1517 0 28.875 0H4.125C1.84832 0 0 1.84832 0 4.125V28.875C0 31.1517 1.84832 33 4.125 33H28.875C31.1517 33 33 31.1517 33 28.875V4.125Z" fill="#5B6180"/>
<path d="M9.46256 11.5157H3.93506V28.1421H9.46256V11.5157Z" fill="white"/>
<path d="M6.73612 3.49852C4.84501 3.49852 3.60938 4.74182 3.60938 6.37139C3.60938 7.96673 4.80743 9.24432 6.66297 9.24432H6.69868C8.62602 9.24432 9.82569 7.96673 9.82569 6.37139C9.78991 4.74182 8.62615 3.49852 6.73612 3.49852V3.49852Z" fill="white"/>
<path d="M23.0277 11.1247C20.0957 11.1247 18.7824 12.7371 18.047 13.8697V11.5157H12.5209C12.5942 13.0752 12.5209 28.142 12.5209 28.142H18.047V18.8567C18.047 18.3597 18.0827 17.8628 18.2292 17.5076C18.628 16.515 19.5379 15.4869 21.0646 15.4869C23.0635 15.4869 23.8642 17.0121 23.8642 19.2462V28.142H29.3905V18.6075C29.3905 13.5004 26.6638 11.1247 23.0277 11.1247V11.1247Z" fill="white"/>
</svg>
