<svg width="41" height="41" viewBox="0 0 41 41" fill="none" xmlns="http://www.w3.org/2000/svg">
<path d="M12.8937 37.1573C28.3654 37.1573 36.8278 24.3391 36.8278 13.2231C36.8278 12.8591 36.8279 12.4967 36.8033 12.1358C38.4495 10.945 39.8707 9.47068 41 7.78168C39.4648 8.46194 37.8361 8.90797 36.1686 9.10513C37.9242 8.05418 39.239 6.39993 39.8667 4.45243C38.2156 5.43218 36.409 6.12278 34.5253 6.49426C32.9348 4.80293 30.7134 3.84271 28.3919 3.84271C23.7728 3.84271 19.972 7.64354 19.972 12.2624C19.972 12.9032 20.0452 13.542 20.19 14.1661C13.43 13.8273 7.12287 10.6298 2.85358 5.37741C0.633498 9.19922 1.78222 14.1521 5.45788 16.6064C4.11938 16.5668 2.80962 16.2057 1.64 15.5536V15.6602C1.64112 19.6492 4.47853 23.1163 8.38858 23.9061C7.15026 24.2438 5.85067 24.2931 4.5904 24.0504C5.68963 27.4686 8.85944 29.8247 12.4493 29.8921C9.47116 32.2326 5.79021 33.5039 2.00243 33.5001C1.33314 33.4988 0.664488 33.4583 0 33.3787C3.84647 35.8471 8.32332 37.1568 12.8937 37.1507" fill="#5B6180"/>
</svg>
